<?xml version="1.0" encoding="utf-8"?>
<!-- Generator: Adobe Illustrator 16.0.0, SVG Export Plug-In . SVG Version: 6.00 Build 0)  -->
<!DOCTYPE svg PUBLIC "-//W3C//DTD SVG 1.1//EN" "http://www.w3.org/Graphics/SVG/1.1/DTD/svg11.dtd">
<svg version="1.1" id="图层_1" xmlns="http://www.w3.org/2000/svg" xmlns:xlink="http://www.w3.org/1999/xlink" x="0px" y="0px"
	 width="512px" height="512px" viewBox="0 0 512 512" enable-background="new 0 0 512 512" xml:space="preserve">
<path fill="#242525" d="M472.249,222.822c-1.403,107.654-74.661,163.908-135.014,227.999c-1.895,2.013-4.7,3.162-6.625,5.155
	C260.187,528.839,220.688,524.5,157.3,442.078c-32.63-42.428-75.182-75.952-102.059-124.515
	c-46.45-83.932,2.749-240.362,89.34-281.418c133.618-63.354,248.182-11.991,308.589,106.875
	C465.988,168.243,478.42,198.415,472.249,222.822"/>
<path fill="#6C6D6C" d="M237.19,489.851c3.581,0.868,7.16,1.736,10.741,2.605C244.351,491.588,240.771,490.719,237.19,489.851"/>
<path fill="#242525" d="M99.528,189.083c3.31-11.909,6.619-23.818,9.927-35.729c7.164-8.965,14.329-17.93,21.494-26.893
	c7.878-7.411,15.758-14.822,23.636-22.234c5.383-4.625,10.764-9.251,16.147-13.876c3.558-1.545,7.114-3.089,10.671-4.636
	c6.43-3.669,12.861-7.332,19.293-10.998c4.581-0.946,9.163-1.893,13.745-2.841c2.719-0.539,5.437-1.074,8.157-1.611
	c2.611-0.595,5.225-1.192,7.84-1.787c2.846,0.373,5.691,0.744,8.537,1.115c11.566,0.058,23.132,0.114,34.698,0.171l8.587-1.171
	c10.426,2.979,20.854,5.958,31.281,8.934c6.219,3.523,12.438,7.049,18.654,10.577c0.855,0.695,1.829,1.117,2.924,1.261
	c10.411,7.899,20.819,15.799,31.229,23.698l-0.012-0.013l7.379,9.341c0,0,0.177,0.223,0.178,0.223
	c3.988,4.343,7.975,8.686,11.963,13.03c1.978,3.708,3.956,7.414,5.935,11.122c3.573,6.24,7.146,12.479,10.72,18.719l14.17,40.78
	c-2.909,23.865-5.82,47.728-8.73,71.591c-3.162,7.653-6.325,15.307-9.481,22.966c-8.576,11.797-17.158,23.591-25.74,35.385
	c-33.688,34.325-67.063,68.97-101.408,102.623c-4.959,4.859-14.574,4.967-22.037,7.273c-0.684-3.598-1.366-7.194-2.049-10.792
	c27.029-25.148,54.612-49.732,80.992-75.547c99.511-97.381,103.186-204.255-21.171-266.697
	c-55.62-27.928-111.021-10.47-152.696,32.572c-49.38,50.997-54.249,114.432-20.208,174.424
	c22.875,40.312,58.249,73.532,88.03,109.926c-8.145-4.673-16.291-9.347-24.436-14.02c-3.853-2.908-7.705-5.816-11.56-8.724
	c-4.668-5.644-9.335-11.285-14.003-16.927c-4.041-4.135-8.083-8.268-12.124-12.4c-4.963-8.725-9.193-18.367-21.854-17.458
	c-10.875-18.196-21.752-36.391-32.635-54.584c-1.275-2.762-2.548-5.524-3.818-8.288c-0.926-5.407-1.853-10.813-2.777-16.221
	l-1.854-9.087c-0.477-2.698-0.952-5.397-1.428-8.096C96.97,225.817,98.249,207.449,99.528,189.083"/>
<path fill="#FEFFFF" d="M247.232,435.31c-8.351-8.441-16.701-16.883-25.052-25.323c-29.782-36.393-65.157-69.613-88.031-109.924
	c-34.041-59.993-29.171-123.427,20.208-174.426c41.676-43.042,97.076-60.5,152.696-32.57
	c124.356,62.441,120.682,169.315,21.171,266.696C301.846,385.577,274.263,410.161,247.232,435.31"/>
<path fill="#FEFFFF" d="M341.571,252.976l1.362-13.185c12.743-48.368-6.213-86.205-49.956-101.448
	c-28.126-9.801-66.148-17.393-91.577,15.996c-3.199,3.165-6.397,6.331-9.598,9.494c-30.009,20.627-39.02,51.863-30.76,83.67
	c7.205,27.734,18.276,59.191,57.007,60.668l13.267,8.396c1.795,8.482,5.693,10.022,11.993,3.634
	c8.711-0.07,17.423-0.139,26.134-0.209c14.015,4.071,23.721,1.242,24.757-15.464c1.143-0.896,2.284-1.792,3.432-2.677
	c4.987-2.303,9.976-4.604,14.963-6.908C331.067,287.04,345.648,276.449,341.571,252.976"/>
<circle fill="#E9472A" cx="255.629" cy="232.446" r="84.546"/>
</svg>
