<?xml version="1.0" encoding="utf-8"?>
<!-- Generator: Adobe Illustrator 16.0.0, SVG Export Plug-In . SVG Version: 6.00 Build 0)  -->
<!DOCTYPE svg PUBLIC "-//W3C//DTD SVG 1.1//EN" "http://www.w3.org/Graphics/SVG/1.1/DTD/svg11.dtd">
<svg version="1.1" id="图层_1" xmlns="http://www.w3.org/2000/svg" xmlns:xlink="http://www.w3.org/1999/xlink" x="0px" y="0px"
	 width="512px" height="512px" viewBox="0 0 512 512" enable-background="new 0 0 512 512" xml:space="preserve">
<path fill="#252625" d="M242.646,61.29c79.807,3.637,138.304,40.216,172.757,113.327c4.103,8.706,9.111,15.827,16.669,22.163
	c29.299,24.559,25.998,83.456-5.284,104.913c-15.938,10.933-43.1-0.428-49.692-21.999c-5.94-19.438-8.075-41.046-0.204-59.061
	c11.673-26.716,0.312-46.473-13.938-64.834c-28.988-37.348-68.76-59.058-115.765-59.385c-55.918-0.39-112.227,28.999-137.752,88.156
	c-31.551,73.123-6.387,149.607,59.955,192.566c12.469,8.074,24.231,12.113,39.603,5.57c20.025-8.525,41.839-6.464,62.826-3.145
	c17.271,2.73,28.794,17.506,29.934,34.833c1.085,16.497-8.377,30.778-24.597,37.128c-30.866,12.084-67.75,3.346-89.148-21.559
	c-6.862-7.985-16.97-10.195-25.383-15.216c-34.962-20.864-65.893-44.91-83.942-83.029c-17.148-36.212-25.078-73.62-17.759-113.226
	c11.378-61.574,44.937-108.69,99.714-137.988C185.108,67.416,213.308,60.086,242.646,61.29"/>
<path fill="#E9543F" d="M242.884,332.689c-8.827,0-17.689,0.504-26.47-0.133c-10.082-0.731-18.843-4.503-19.56-16.297
	c-0.772-12.676,7.217-21.047,18.358-22.045c19.251-1.725,38.865-1.68,58.131-0.054c11.22,0.946,19.208,9.266,18.783,21.824
	c-0.445,13.149-10.686,15.823-21.015,16.673c-9.351,0.769-18.813,0.162-28.228,0.162V332.689z"/>
<path fill="#E9543F" d="M195.89,202.272c1.24,19.853-9.601,25.152-21.624,25.585c-11.107,0.401-17.428-8.023-18.246-19.298
	c-1.033-14.255,9.384-20.2,20.208-21.476C188.376,185.652,194.756,194.682,195.89,202.272"/>
<rect x="58.201" y="61.161" fill="none" width="394.061" height="395.741"/>
<rect x="58.201" y="61.161" fill="none" width="394.061" height="395.741"/>
<rect fill="none" width="512" height="512"/>
<path fill="#E9543F" d="M293.965,212.305c-1.185-18.976,9.178-24.041,20.67-24.456c10.617-0.383,16.659,7.669,17.441,18.446
	c0.987,13.625-8.971,19.308-19.316,20.528C301.148,228.191,295.05,219.561,293.965,212.305"/>
</svg>
