<?xml version="1.0" standalone="no"?><!DOCTYPE svg PUBLIC "-//W3C//DTD SVG 1.1//EN" "http://www.w3.org/Graphics/SVG/1.1/DTD/svg11.dtd"><svg t="1546797740265" class="icon" style="" viewBox="0 0 1024 1024" version="1.1" xmlns="http://www.w3.org/2000/svg" p-id="2041" xmlns:xlink="http://www.w3.org/1999/xlink" width="200" height="200"><defs><style type="text/css"></style></defs><path d="M864 320v512c0 53.376-40.32 96-89.28 96h-525.44C200.32 928 160 885.376 160 832V192c0-53.376 40.32-96 89.28-96H665.6a32 32 0 0 0 0-64H249.28C164.16 32 96 104 96 192v640c0 88 68.224 160 153.28 160h525.44c85.12 0 153.28-72 153.28-160V320a32 32 0 1 0-64 0z" fill="#5A5A5A" p-id="2042"></path><path d="M288 384h192a32 32 0 0 1 0 64h-192a32 32 0 0 1 0-64z m0 192h384a32 32 0 0 1 0 64h-384a32 32 0 0 1 0-64z" fill="#5A5A5A" p-id="2043"></path><path d="M564.353247 382.391919l362.038672-362.038672 45.254834 45.254834-362.038672 362.038672-45.254834-45.254834Z" fill="#5A5A5A" p-id="2044"></path></svg>