<?xml version="1.0" encoding="utf-8"?>
<!-- Generator: Adobe Illustrator 16.0.0, SVG Export Plug-In . SVG Version: 6.00 Build 0)  -->
<!DOCTYPE svg PUBLIC "-//W3C//DTD SVG 1.1//EN" "http://www.w3.org/Graphics/SVG/1.1/DTD/svg11.dtd">
<svg version="1.1" id="图层_1" xmlns="http://www.w3.org/2000/svg" xmlns:xlink="http://www.w3.org/1999/xlink" x="0px" y="0px"
	 width="512px" height="512px" viewBox="0 0 512 512" enable-background="new 0 0 512 512" xml:space="preserve">
<path fill="#353230" d="M257.975,72.35c63.234,0,126.471,0.359,189.7-0.134c38.205-0.297,56.323,19.139,56.465,56.266
	c0.325,86.079,0.086,172.161,0.011,258.24c-0.035,39.023-21.052,58.132-58.339,58.284c-127.212,0.521-254.433,0.705-381.639-0.192
	c-34.232-0.24-54.006-20.585-54.371-55.168c-0.922-87.567-1.174-175.159-0.085-262.721c0.419-33.747,17.767-54.512,54.09-54.436
	c64.722,0.134,129.445,0.037,194.167,0.037V72.35z M259.158,397.6c49.813,0,99.728-1.958,149.41,0.611
	c40.661,2.103,51.709-17.144,50.889-53.703c-1.14-50.82,0.352-101.7,0.557-152.552c0.031-7.941,3.046-18.611-5.425-22.364
	c-9.725-4.308-17.862,3.284-25.497,9.778c-50.887,43.303-101.889,86.469-153.106,129.374c-13.486,11.298-25.588,9.371-39.343-2.702
	c-50.016-43.896-100.973-86.708-151.935-129.499c-5.812-4.879-15.281-11.274-20.604-9.506c-9.242,3.071-7.952,14.747-7.935,23.696
	c0.098,53.104,1.443,106.238,0.046,159.3c-0.901,34.245,11.791,49.116,46.828,47.979C155.033,396.328,207.116,397.576,259.158,397.6
	 M141.172,125.048c-9.212-1.275-21.293-4.188-25.453,6.381c-3.959,10.062,8.301,12.911,13.842,17.668
	c35.443,30.431,71.748,59.84,107.346,90.09c16.577,14.086,30.073,13.25,46.43-1.926c33.722-31.281,69.254-60.581,103.809-90.964
	c5.076-4.463,16.513-6.746,11.916-15.667c-2.147-4.165-12.85-5.329-19.686-5.359C299.977,124.921,220.575,125.048,141.172,125.048"
	/>
<path fill="#E9451F" d="M141.172,125.048c79.403,0,158.805-0.127,238.205,0.224c6.836,0.031,17.538,1.194,19.686,5.359
	c4.597,8.92-6.84,11.204-11.916,15.667c-34.555,30.383-70.087,59.683-103.809,90.964c-16.357,15.175-29.854,16.012-46.43,1.926
	c-35.599-30.25-71.903-59.659-107.346-90.09c-5.541-4.757-17.801-7.607-13.842-17.668
	C119.878,120.859,131.959,123.772,141.172,125.048"/>
</svg>
