<?xml version="1.0" encoding="utf-8"?>
<!-- Generator: Adobe Illustrator 16.0.0, SVG Export Plug-In . SVG Version: 6.00 Build 0)  -->
<!DOCTYPE svg PUBLIC "-//W3C//DTD SVG 1.1//EN" "http://www.w3.org/Graphics/SVG/1.1/DTD/svg11.dtd">
<svg version="1.1" id="图层_1" xmlns="http://www.w3.org/2000/svg" xmlns:xlink="http://www.w3.org/1999/xlink" x="0px" y="0px"
	 width="512px" height="512px" viewBox="0 0 512 512" enable-background="new 0 0 512 512" xml:space="preserve">
<path fill="#484848" d="M252.13,502.112c-60.575,0-121.152,0.21-181.726-0.078c-38.096-0.18-57.741-19.425-57.802-56.861
	c-0.198-121.89,0.222-243.781-0.237-365.668C12.247,48.118,33,21.837,67.604,21.962c43.583,0.159,87.168-0.167,130.751-0.092
	c10.464,0.018,20.866,1.658,29.046,8.818c8.325,7.287,8.59,17.461,5.026,26.593c-4.957,12.697-17.449,15.901-29.238,16.163
	c-30.267,0.677-60.567,0.026-90.852-0.243c-43.117-0.384-50.131,6.714-50.092,50.115c0.083,94.555,0.064,189.111-0.011,283.667
	c-0.028,38.312,7.917,46.173,47.021,46.177c96.772,0.011,193.544,0.115,290.316,0.104c36.557-0.005,44.44-7.731,44.501-43.957
	c0.051-30.286-0.118-60.577-0.62-90.855c-0.15-9.105,0.648-17.725,5.545-25.53c8.971-14.298,27.248-14.48,36.331-0.301
	c5.386,8.407,6.239,17.867,6.163,27.67c-0.314,40.628-0.188,81.26-0.531,121.889c-0.34,40.462-18.959,59.611-59.325,59.911
	c-59.832,0.439-119.672,0.111-179.505,0.111V502.112z"/>
<path fill="#484848" d="M208.392,366.461c-66.66,1.475-60.82,3.381-60.548-56.163c0.045-10.323,0.019-20.653-0.354-30.967
	c-0.434-12.013,4.641-20.589,13.583-28.637c23.293-20.963,48.628-40.58,67.916-64.885c46.369-58.43,103.538-106.05,154.26-160.039
	c21.61-23.002,32.307-22.478,55.245-0.417c17.5,16.829,34.833,33.849,51.735,51.272c18.568,19.143,18.41,32.918,0.234,51.267
	c-25.324,25.563-47.946,54.892-76.714,75.72c-50.263,36.389-83.967,87.876-127.566,130.174
	C261.646,357.59,238.262,374.342,208.392,366.461"/>
<path fill="#484848" d="M206.097,308.839l0.453,0.362c14.859,16.695,27.839,5.75,38.266-4.534
	c63.21-62.334,125.444-125.656,188.737-187.903c13.845-13.616,3.494-22.669-3.12-32.014c-7.278-10.286-19.241-13.188-28.938-4.856
	c-12.026,10.331-25.674,19.865-32.093,35.523c-8.107,3.216-13.781,8.882-17.062,16.956c-15.213,8.944-28.175,20.05-35.28,36.772
	c-1.325,1.318-2.648,2.636-3.972,3.955c-8.219,0.841-12.817,5.395-13.903,13.552c-1.355,1.352-2.711,2.704-4.066,4.058
	c-5.729,0.428-8.789,3.524-9.23,9.236l-4.021,4.09c-8.029,1.016-12.549,5.593-13.745,13.542c-1.437,1.346-2.873,2.693-4.309,4.039
	c-7.941,1.199-12.47,5.73-13.421,13.751c-11.647,11.749-23.294,23.498-34.941,35.244c-9.09,3.339-18.233,6.638-14.915,19.476
	c0.043,2.749,0.084,5.495,0.127,8.242C196.415,304.965,199.063,308.034,206.097,308.839"/>
<path fill="#E5451A" d="M281.867,204.036c1.341-1.363,2.681-2.726,4.031-4.082c7.503,1.325,10.642-1.691,9.221-9.245
	c1.355-1.353,2.711-2.705,4.077-4.047c10.444,1.424,15.005-3.167,13.893-13.562c1.323-1.319,2.646-2.637,3.981-3.948
	c23.088-1.399,30.074-18.231,35.271-36.779c3.28-8.074,8.954-13.74,17.074-16.95c18.265,1.607,23.245-15.901,34.466-24.328
	c8.293-6.229,14.648-5.883,21,1.586c5.043,5.929,4.807,10.406-1.505,16.745c-58.14,58.394-115.775,117.29-173.525,176.074
	c-12.066,12.282-25.036,22.798-43.302,23.7c0,0-0.453-0.362-0.441-0.371c1.584-5.27,0.152-8.968-5.444-10.501
	c-0.043-2.747-0.084-5.493-0.113-8.239c9.602-2.955,16.537-7.941,14.899-19.479c11.648-11.746,23.296-23.495,34.954-35.234
	c10.565,1.344,15.284-3,13.409-13.761c1.436-1.347,2.872-2.693,4.318-4.03C278.651,219.081,283.261,214.596,281.867,204.036"/>
<path fill="#E5451A" d="M206.549,309.201c18.266-0.902,31.236-11.417,43.303-23.7c57.749-58.784,115.384-117.68,173.524-176.074
	c6.312-6.339,6.548-10.816,1.505-16.745c-6.352-7.47-12.707-7.814-21-1.585c-11.221,8.426-16.201,25.933-34.466,24.328
	c6.406-15.666,20.054-25.2,32.08-35.53c9.696-8.332,21.659-5.43,28.938,4.856c6.614,9.345,16.965,18.396,3.12,32.013
	c-63.293,62.248-125.527,125.571-188.737,187.904C234.388,314.951,221.409,325.896,206.549,309.201"/>
<path fill="#E5451A" d="M352.341,132.373c-5.196,18.547-12.183,35.381-35.271,36.78
	C324.166,152.423,337.128,141.317,352.341,132.373"/>
<path fill="#E5451A" d="M215.451,270.611c1.636,11.537-5.298,16.523-14.9,19.479C197.219,277.249,206.362,273.95,215.451,270.611"/>
<path fill="#E5451A" d="M313.089,173.1c1.112,10.395-3.448,14.986-13.893,13.562C300.271,178.494,304.87,173.941,313.089,173.1"/>
<path fill="#E5451A" d="M281.867,204.036c1.394,10.56-3.216,15.045-13.735,13.551C269.318,209.627,273.839,205.052,281.867,204.036"
	/>
<path fill="#E5451A" d="M263.813,221.616c1.875,10.762-2.844,15.104-13.41,13.761C251.344,227.347,255.872,222.815,263.813,221.616"
	/>
<path fill="#E5451A" d="M295.119,190.709c1.421,7.555-1.718,10.57-9.221,9.246C286.33,194.233,289.391,191.138,295.119,190.709"/>
<path fill="#E5451A" d="M200.664,298.329c5.595,1.533,7.029,5.231,5.444,10.501C199.063,308.034,196.415,304.965,200.664,298.329"/>
</svg>
