<?xml version="1.0" encoding="utf-8"?>
<!-- Generator: Adobe Illustrator 16.0.0, SVG Export Plug-In . SVG Version: 6.00 Build 0)  -->
<!DOCTYPE svg PUBLIC "-//W3C//DTD SVG 1.1//EN" "http://www.w3.org/Graphics/SVG/1.1/DTD/svg11.dtd">
<svg version="1.1" id="图层_1" xmlns="http://www.w3.org/2000/svg" xmlns:xlink="http://www.w3.org/1999/xlink" x="0px" y="0px"
	 width="512px" height="512px" viewBox="0 0 512 512" enable-background="new 0 0 512 512" xml:space="preserve">
<g>
	<path fill="#3E3E3E" d="M430.398,246.424c0,16.658,0.129,30.42-0.033,44.178c-0.189,16.004-7.883,27.034-24.165,27.563
		c-15.852,0.514-23.151-11.599-23.997-25.433c-1.334-21.765-1.255-43.706-0.282-65.506c2.389-53.561-28.014-87.902-68.272-115.374
		c-21.834-14.899-31.272-8.232-31.785,19.273c-0.241,12.942,0.428,25.903,0.146,38.844c-0.341,15.718-10.609,25.017-24.412,24.83
		c-13.024-0.174-21.26-10.986-21.727-24.707c-0.522-15.352,0.461-30.748,0.285-46.119c-0.193-16.875-6.359-25.046-24.144-15.728
		c-46.054,24.132-76.706,58.657-77.059,113.644c-0.141,21.853,0.541,43.715,0.294,65.566c-0.182,16.082-5.542,29.754-24.25,30.038
		c-19.077,0.289-24.307-13.18-23.745-29.531c1.217-35.462-3.244-71.188,6.209-106.268C110.133,119.834,150.2,80.511,210.221,61.517
		c14.291-4.522,22.809-10.242,24.144-25.459c0.413-4.702,2.375-9.511,4.606-13.755c4.471-8.504,8.581-18.531,20.581-17.64
		c10.829,0.805,19.962,8.32,20.41,17.967c1.319,28.428,20.727,34.247,42.594,43.802
		C401.568,100.957,434.427,164.717,430.398,246.424"/>
	<path fill="#3E3E3E" d="M342.809,342.443c5.24,10.38,15.154,7.644,23.548,7.79c24.209,0.419,48.455-0.533,72.635,0.411
		c13.563,0.53,25.917,5.217,26.3,22.303c0.398,17.81-13.354,21.395-26.101,22.3c-20.068,1.424-40.329,0.345-60.502-0.036
		c-9.18-0.174-18.085-0.641-22.114,10.086c-4.149-2.006-8.099-1.439-11.919,0.882c-1.852-4.157-5.353-5.732-9.589-5.753
		c-56.747-0.278-113.515-3.259-170.233,1.071c-3.305-2.119-6.706-2.437-10.222-0.535c-18.494-8.794-37.816-4.521-56.996-3.927
		c-29.982,0.932-46.598-8.243-44.161-24.784c3.952-26.827,25.192-21.559,43.368-21.743c27.87-0.283,56.089,3.981,83.273-5.937
		c51.066,8.132,101.991,2.735,152.929-1.679L342.809,342.443z"/>
	<path fill="#E8411F" d="M333.023,342.893c-50.938,4.414-101.862,9.811-152.93,1.679c-0.62-0.793-0.989-1.692-1.096-2.708
		c9.517,0.363,13.448-7.824,19.573-12.703c22.957-18.296,48.106-30.387,77.935-20.5
		C297.659,315.673,319.091,323.416,333.023,342.893"/>
	<path fill="#EE9B86" d="M333.023,342.893c-13.933-19.477-35.364-27.22-56.518-34.232c-29.828-9.887-54.978,2.204-77.935,20.5
		c-6.125,4.879-10.057,13.066-19.573,12.703c-5.081-1.661-6.238-5.53-3.191-9.167c29.881-35.661,84.872-57.465,131.029-26.604
		c13.816,9.239,35.128,13.402,35.966,36.356C339.547,342.593,336.285,342.744,333.023,342.893"/>
	<path fill="#EE9B86" d="M154.611,400.962c3.516-1.901,6.917-1.584,10.219,0.529c0.608,10.463,9.747,17.69,9.713,28.978
		c-0.047,15.714,9.117,26.581,23.512,32.858c1.906,8.503,6.435,13.867,15.92,13.299c4.676,1.845,9.351,3.689,14.027,5.533
		c23.7,15.333,47.488,14.231,69.586-3.222c6.133-1.763,13.307-0.99,17.6-7.231c3.237-1.55,6.476-3.1,9.713-4.649
		c0.759,0.697,1.512,1.401,2.258,2.113l-2.314,12.413l-19.013,10.041c-7.87,0.58-14.608,3.355-19.355,9.986
		c-17.41,0.371-34.512,5.829-52.115,3.18c-3.967-9.152-11.649-12.316-20.899-12.958c-5.901-2.283-11.803-4.564-17.716-6.833
		c-11.897-15.566-23.784-31.146-35.671-46.727l-0.038-0.041c0.393-5.611,0.957-11.285-5.238-14.521
		C154.735,416.128,154.673,408.545,154.611,400.962"/>
	<path fill="#EE9B86" d="M357.186,413.604c5.149,6.091,1.665,13.165,2.255,19.776c-12.753,10.133-15.317,29.455-32.282,35.788
		c-0.746-0.711-1.499-1.415-2.253-2.109c0.192-3.091,0.38-6.185,0.568-9.278c10.102-6.682,13.792-17.018,16.054-28.168
		C351.149,428.582,348.215,415.271,357.186,413.604"/>
	<path fill="#F6D7C9" d="M327.158,469.169c16.965-6.333,19.529-25.655,32.282-35.788c3.313,17.874-11.873,39.038-34.593,48.205
		C325.615,477.445,326.387,473.308,327.158,469.169"/>
	<path fill="#F6D7C9" d="M160.075,438.272c11.886,15.58,23.773,31.16,35.67,46.727C168.087,481.464,163.456,460.345,160.075,438.272
		"/>
	<path fill="#EB6247" d="M357.186,413.604c-8.971,1.666-6.036,14.978-15.67,16.005c-2.675-8.313-1.733-16.136,3.14-23.431
		c3.82-2.321,7.77-2.888,11.918-0.882C356.783,408.067,356.984,410.836,357.186,413.604"/>
	<path fill="#F6D7C9" d="M286.476,501.61c4.747-6.631,11.485-9.406,19.354-9.986C303.493,502.929,299.529,511.075,286.476,501.61"/>
	<path fill="#F6D7C9" d="M213.461,491.832c9.25,0.642,16.933,3.806,20.898,12.958C224.019,505.923,215.809,503.611,213.461,491.832"
		/>
	<path fill="#F6D7C9" d="M154.798,423.711c6.195,3.236,5.63,8.909,5.239,14.521C149.587,436.53,147.554,431.793,154.798,423.711"/>
	<path fill="#E8411F" d="M344.655,406.179c-4.873,7.295-5.815,15.118-3.139,23.431c-2.251,11.154-5.941,21.49-16.045,28.171
		c-9.578,0.101-10.006,6.958-10.284,13.926c-4.293,6.241-11.467,5.469-17.606,7.219c-23.198,1.069-46.389,2.152-69.58,3.234
		c-4.676-1.844-9.351-3.688-14.03-5.531c-1.312-9.211-6.08-14.286-15.917-13.301c-14.395-6.277-23.56-17.145-23.513-32.858
		c0.033-11.287-9.105-18.516-9.712-28.978c56.721-4.324,113.489-1.344,170.236-1.065
		C339.303,400.446,342.804,402.021,344.655,406.179"/>
	<path fill="#EB6247" d="M228.002,482.159c23.19-1.082,46.381-2.165,69.579-3.234C275.49,496.391,251.702,497.493,228.002,482.159"
		/>
	<path fill="#EB6247" d="M198.055,463.327c9.836-0.985,14.606,4.09,15.917,13.302C204.49,477.194,199.962,471.83,198.055,463.327"/>
	<path fill="#EB6247" d="M315.188,471.706c0.278-6.968,0.706-13.825,10.285-13.926c-0.188,3.095-0.375,6.188-0.567,9.279
		C321.663,468.606,318.425,470.156,315.188,471.706"/>
</g>
</svg>
