<?xml version="1.0" encoding="utf-8"?>
<!-- Generator: Adobe Illustrator 16.0.0, SVG Export Plug-In . SVG Version: 6.00 Build 0)  -->
<!DOCTYPE svg PUBLIC "-//W3C//DTD SVG 1.1//EN" "http://www.w3.org/Graphics/SVG/1.1/DTD/svg11.dtd">
<svg version="1.1" id="图层_1" xmlns="http://www.w3.org/2000/svg" xmlns:xlink="http://www.w3.org/1999/xlink" x="0px" y="0px"
	 width="512px" height="512px" viewBox="0 0 512 512" enable-background="new 0 0 512 512" xml:space="preserve">
<g>
	<path fill="#E94624" d="M239.552,280.912c-7.85-14.635-16.154-23.342-33.488-16.904c-7.371,2.739-16.716,3.272-23.733-1.745
		c-7.497-5.361-20.514-6.383-20.11-18.906c0.328-10.159,9.521-14.221,17.502-18.669c21.671-12.079,22.519-18.205,5.589-36.572
		c-2.768-3.003-5.599-5.965-8.597-8.736c-9.695-8.962-12.597-18.385-3.864-30.026c9.963-13.278,22.391-10.357,32.145-2.71
		c12.716,9.969,23.81,22.362,34.19,34.88c20.945,25.258,32.499,26.163,54.676,2.75c9.482-10.013,19.799-19.288,28.705-29.774
		c8.28-9.751,19.181-13.005,27.808-5.6c10.49,9.008,5.893,20.604-3.178,29.786c-2.869,2.905-5.864,5.731-8.393,8.917
		c-19.029,23.978-18.331,26.19,10.099,38.246c7.892,3.347,14.539,9.169,13.821,18.316c-0.682,8.714-8.963,11.624-16.122,12.455
		c-10.488,1.223-21.248-0.019-31.791,0.909c-11.66,1.025-23.722,3.232-24.295,18.578c-0.628,16.808,12.388,16.733,23.81,17.433
		c9.771,0.6,19.609,0.017,29.411,0.277c9.76,0.259,18.288,3.214,19.273,14.534c1.016,11.622-6.105,18.311-16.516,21.006
		c-5.404,1.398-11.362,0.821-17.071,0.851c-39.465,0.22-43.36,3.986-44.738,42.9c-0.34,9.568,1.496,20.161-10.438,25.063
		c-15.625,6.417-27.698-2.296-29.118-21.145c-3.228-42.863-3.228-42.863-45.313-43.474c-3.268-0.048-6.64,0.408-9.785-0.234
		c-12.279-2.512-26.402-6.014-26.972-20.405c-0.654-16.488,14.683-19.862,27.581-22.172
		C206.241,287.948,223.594,295.357,239.552,280.912"/>
	<path fill="#232424" d="M48.389,265.943c-3.226,71.777,33.502,133.824,99.44,170.973c68.174,38.409,143.284,48.409,215.03,0.145
		c8.131-5.471,17.069-10.397,26.344-13.323c8.889-2.804,18.868-1.899,23.348,8.547c4.168,9.716,3.646,18.997-5.592,26.58
		c-53.137,43.618-115.358,52.826-180.849,45.76c-49.782-5.372-97.162-20.871-133.36-56.92
		c-73.46-73.162-105.901-159.71-75.292-262.903c11.704-39.459,35.162-72.19,62.654-103.089
		C130.544,25.031,197.006,9.099,267.069,9.56c80.275,0.528,145.039,40.627,192.022,103.396
		c28.816,38.499,45.764,85.029,46.884,135.066c0.332,14.863-2.58,28.711-21.058,28.865c-18.821,0.159-20.614-14.137-21.198-28.768
		C457.487,91.33,295.074,7.995,162.592,72.065C87.92,108.177,47.079,171.586,48.389,265.943"/>
</g>
<rect x="-105.182" y="-27.736" fill="none" width="748.503" height="627.777"/>
<rect fill="none" width="512" height="512"/>
</svg>
