<?xml version="1.0" encoding="utf-8"?>
<!-- Generator: Adobe Illustrator 16.0.0, SVG Export Plug-In . SVG Version: 6.00 Build 0)  -->
<!DOCTYPE svg PUBLIC "-//W3C//DTD SVG 1.1//EN" "http://www.w3.org/Graphics/SVG/1.1/DTD/svg11.dtd">
<svg version="1.1" id="图层_1" xmlns="http://www.w3.org/2000/svg" xmlns:xlink="http://www.w3.org/1999/xlink" x="0px" y="0px"
	 width="512px" height="512px" viewBox="0 0 512 512" enable-background="new 0 0 512 512" xml:space="preserve">
<path fill="#242525" d="M255.531,21.939c20.053,0.014,40.212,1.33,60.142-0.246c50.665-4.005,84.472,21.233,108.583,62.022
	c23.16,39.18,42.829,80.482,66.935,119.036c26.467,42.333,16.045,83.194-6.301,119.508c-19.917,32.368-38.652,65.434-56.467,98.74
	c-25.855,48.341-62.003,72.671-117.752,69.476c-39.975-2.291-80.207-1.446-120.278-0.334c-48.503,1.347-81.806-20.25-104.48-62.224
	c-19.411-35.936-39.662-71.49-61.17-106.203c-27.885-45.002-28.92-85.971,1.897-132.278c22.288-33.493,40.464-70.614,59.871-106.448
	c21.217-39.175,53.359-61.002,98.828-61.056C208.737,21.903,232.134,21.928,255.531,21.939 M255.158,441.149v-0.175
	c19.202,0,38.439-0.731,57.601,0.163c32.798,1.531,56.771-14.322,73.528-39.834c23.744-36.147,45.003-73.937,67.051-111.187
	c12.058-20.371,16.083-41.413,3.047-63.16c-25.275-42.161-49.646-84.9-76.167-126.262c-12.179-18.998-32.016-29.666-55.22-29.992
	c-45.884-0.647-91.79-0.846-137.67-0.147c-28.005,0.425-47.775,15.554-63.773,38.041c-21.354,30.014-35.318,64.277-56.06,94.487
	c-24.907,36.276-22.684,71.337,0.829,107.271c17.211,26.301,33.724,53.14,49.051,80.575c20.536,36.76,50.85,53.34,92.712,50.389
	C225.039,440.264,240.129,441.149,255.158,441.149"/>
<path fill="#242525" d="M353.452,250.847c1.674,67.384-54.283,103.181-98.347,104.002c-54.895,1.022-99.133-47.062-99.343-103.983
	c-0.195-52.919,52.086-96.492,96.284-96.718C306.618,153.869,354.026,199.938,353.452,250.847 M208.222,264.001
	c-1.866,5.054-0.371,8.793,4.399,11.251c-0.226,1.471-0.191,2.936,0.102,4.394c2.817,27.823,6.843,30.175,49.948,29.178
	c27.479-0.636,47.393-18.395,49.821-44.428c2.944-31.56-10.509-50.337-40.925-57.124c-27.063-15.546-68.099,6.522-70.505,38.28
	C200.552,252.279,197.609,261.096,208.222,264.001"/>
<path fill="#E2421E" d="M212.722,279.646c-0.292-1.458-0.326-2.923-0.106-4.404c13.012-4.23,17.875-12.135,11.362-25.179
	c3.984-4.205,7.97-8.408,11.955-12.613c15.474-0.884,28.236-9.868,42.539-14.253c16.293,15.144,20.933,44.063,9.204,57.369
	c-20.22,22.94-37.617,24.286-61.631,4.368C221.994,281.574,218.124,279.01,212.722,279.646"/>
<path fill="#903B28" d="M212.722,279.646c5.401-0.636,9.271,1.929,13.323,5.287c24.014,19.918,41.411,18.572,61.631-4.368
	c11.729-13.306,7.089-42.225-9.21-57.364c-1.744-6.59-5.364-11.416-12.322-13.104c1.809-0.94,3.616-1.883,5.424-2.825
	c30.416,6.786,43.869,25.564,40.925,57.124c-2.429,26.033-22.343,43.792-49.821,44.428
	C219.566,309.821,215.54,307.469,212.722,279.646"/>
<path fill="#F6F6F6" d="M271.567,207.271c-1.808,0.942-3.615,1.884-5.334,2.836c-10.695,8.391-26.373,11.332-30.3,27.341
	c-3.985,4.205-7.971,8.408-11.939,12.625c-5.247,4.649-10.509,9.288-15.772,13.926c-10.613-2.905-7.67-11.721-7.16-18.449
	C203.469,213.795,244.504,191.725,271.567,207.271"/>
<path fill="#E17053" d="M208.222,264.001c5.263-4.639,10.525-9.276,15.772-13.927c6.497,13.033,1.632,20.937-11.379,25.167
	C207.851,272.794,206.356,269.055,208.222,264.001"/>
<path fill="#E17053" d="M235.933,237.449c3.927-16.01,19.605-18.95,30.3-27.341c6.868,1.675,10.488,6.502,12.232,13.091
	C264.169,227.581,251.408,236.565,235.933,237.449"/>
</svg>
