<svg
    xmlns="http://www.w3.org/2000/svg"
    viewBox="0 0 24 24"
    id="vector">
    <path
        id="path"
        d="M 7 18 C 5.9 18 5.01 18.9 5.01 20 C 5.01 21.1 5.9 22 7 22 C 8.1 22 9 21.1 9 20 C 9 18.9 8.1 18 7 18 Z M 1 2 L 1 4 L 3 4 L 6.6 11.59 L 5.25 14.04 C 5.09 14.32 5 14.65 5 15 C 5 16.1 5.9 17 7 17 L 19 17 L 19 15 L 7.42 15 C 7.28 15 7.17 14.89 7.17 14.75 L 7.2 14.63 L 8.1 13 L 15.55 13 C 16.3 13 16.96 12.59 17.3 11.97 L 20.88 5.48 C 20.96 5.34 21 5.17 21 5 C 21 4.45 20.55 4 20 4 L 5.21 4 L 4.27 2 L 1 2 Z M 17 18 C 15.9 18 15.01 18.9 15.01 20 C 15.01 21.1 15.9 22 17 22 C 18.1 22 19 21.1 19 20 C 19 18.9 18.1 18 17 18 Z"
        fill="#000000"/>
</svg>
