<?xml version="1.0" encoding="utf-8"?>
<!-- Generator: Adobe Illustrator 16.0.0, SVG Export Plug-In . SVG Version: 6.00 Build 0)  -->
<!DOCTYPE svg PUBLIC "-//W3C//DTD SVG 1.1//EN" "http://www.w3.org/Graphics/SVG/1.1/DTD/svg11.dtd">
<svg version="1.1" id="图层_1" xmlns="http://www.w3.org/2000/svg" xmlns:xlink="http://www.w3.org/1999/xlink" x="0px" y="0px"
	 width="512px" height="512px" viewBox="0 0 512 512" enable-background="new 0 0 512 512" xml:space="preserve">
<g>
	<defs>
		<rect id="SVGID_1_" x="-148.791" y="-24.506" width="799.847" height="663.703"/>
	</defs>
	<clipPath id="SVGID_2_">
		<use xlink:href="#SVGID_1_"  overflow="visible"/>
	</clipPath>
	<path clip-path="url(#SVGID_2_)" fill="#373837" d="M259.576,46.74c58.836,0.002,117.671-0.103,176.506,0.041
		c37.967,0.092,56.385,17.872,56.556,55.863c0.406,90.729,0.429,181.46,0.198,272.19c-0.09,35.124-17.273,51.69-52.577,52.206
		c-7.086,0.104-14.282,0.689-21.248-0.259c-48.374-6.585-90.554,7.641-128.661,36.919c-20.71,15.911-44.133,19.032-63.928,1.595
		c-38.788-34.172-83.552-41.646-132.612-37.287c-13.949,1.238-28.33,2.503-41.888-3.725c-18.012-8.274-30.446-21.096-30.526-41.769
		c-0.367-95.689-0.525-191.381-0.108-287.07c0.113-26.095,25.363-48.521,53.277-48.631C136.235,46.57,197.906,46.738,259.576,46.74
		 M258.621,92.719c-51.019,0-102.038-0.111-153.056,0.041c-31.376,0.093-38.579,7.177-38.661,38.109
		c-0.187,70.149-0.204,140.298-0.192,210.447c0.006,31.665,9.061,40.812,40.281,40.756c17.713-0.031,35.427-0.594,53.14-0.536
		c5.572,0.019,12.519-0.613,16.479,2.28c20.482,14.964,46.372,19.423,66.34,35.437c9.693,7.773,21.67,7.605,31.591-0.264
		c40.193-31.883,84.671-45.915,136.241-37.233c20.303,3.418,36.07-9.568,36.267-29.276c0.755-75.799,0.858-151.618-0.08-227.414
		c-0.285-23.052-12.407-32.304-35.293-32.305C360.659,92.756,309.64,92.759,258.621,92.719"/>
	<path clip-path="url(#SVGID_2_)" fill="#E83921" d="M281.466,260.668c0,15.096-12.237,27.332-27.334,27.332l0,0
		c-15.095,0-27.333-12.236-27.333-27.332v-57.334c0-15.096,12.238-27.333,27.333-27.333l0,0c15.097,0,27.334,12.237,27.334,27.333
		V260.668z"/>
	<path clip-path="url(#SVGID_2_)" fill="#E83921" d="M386,261.001c0,15.096-12.237,27.332-27.334,27.332l0,0
		c-15.095,0-27.333-12.236-27.333-27.332v-57.333c0-15.096,12.238-27.334,27.333-27.334l0,0c15.097,0,27.334,12.238,27.334,27.334
		V261.001z"/>
	<path clip-path="url(#SVGID_2_)" fill="#E83921" d="M176.799,261.335c0,15.096-12.237,27.332-27.334,27.332l0,0
		c-15.095,0-27.333-12.236-27.333-27.332v-57.334c0-15.096,12.238-27.334,27.333-27.334l0,0c15.097,0,27.334,12.238,27.334,27.334
		V261.335z"/>
</g>
<rect fill="none" width="512" height="512"/>
</svg>
