<?xml version="1.0" encoding="utf-8"?>
<!-- Generator: Adobe Illustrator 16.0.0, SVG Export Plug-In . SVG Version: 6.00 Build 0)  -->
<!DOCTYPE svg PUBLIC "-//W3C//DTD SVG 1.1//EN" "http://www.w3.org/Graphics/SVG/1.1/DTD/svg11.dtd">
<svg version="1.1" id="图层_1" xmlns="http://www.w3.org/2000/svg" xmlns:xlink="http://www.w3.org/1999/xlink" x="0px" y="0px"
	 width="512px" height="512px" viewBox="0 0 512 512" enable-background="new 0 0 512 512" xml:space="preserve">
<path fill="#3E3E3E" d="M12.522,309.807c0-27.007-0.325-54.018,0.066-81.019c0.892-61.789,43.644-103.697,105.147-103.399
	c22.5,0.108,44.999,0.602,67.497,0.54c21.399-0.058,29.471-9.096,28.164-30.714c-3.209-53.06,15.303-72.436,68.868-72.279
	c28.506,0.084,57.015-0.277,85.518,0.035c17.728,0.193,36.155,1.043,38.718,24.509c1.587,14.543-15.595,26.147-37.954,26.247
	c-26.172,0.117-52.353-0.096-78.517-0.72c-21.242-0.506-30.666,7.581-29.259,29.33c4.657,71.947-0.002,143.94,1.87,215.888
	c0.156,5.992,0.109,12.02-0.339,17.993c-2.943,39.237,15.426,54.279,52.593,40.854c10.748-3.883,22.095-7.685,31.894-15.551
	c15.356-12.326,34.197-14.129,50.106-1.794c22.871,17.733,47.59,23.85,75.747,20.249c6.493-0.831,13.517,0.272,19.972,1.832
	c11.059,2.674,14.891,10.269,14.824,21.754c-0.066,11.726-4.397,19.173-15.746,20.628c-11.061,1.417-22.357,1.431-33.542,1.316
	c-16.106-0.165-28.031,6.511-33.242,21.654c-8.696,25.272-31.097,30.883-51.911,31.407c-21.695,0.546-45.758-5.014-54.98-29.639
	c-6.579-17.569-18.828-21.359-34.809-21.401c-12.752-0.033-25.552,0.445-38.245-0.478c-28.057-2.042-50.184,1.144-68.266,29.639
	c-21.558,33.974-67.666,30.544-93.139-4.397c-12.84-17.613-25.531-27.756-47.893-25.082c-17.782,2.127-23.58-9.179-23.52-25.134
	c0.114-30.756,0.033-61.513,0.033-92.27H12.522z M65.113,201.06c-0.875,6.82-1.75,13.64-2.626,20.46
	c-5.911,2.027-7.577,6.53-7.566,12.319c0.067,36.028,0.068,72.057,0.011,108.085c-0.009,5.801,1.698,10.282,7.645,12.244
	c0.305,4.193,0.61,8.387,0.915,12.58c-3.66,2.52-3.895,5.773-1.292,8.952c2.889,3.528,6.385,5.753,10.629,1.611
	c4.392-0.643,8.784-1.285,13.177-1.929c5.996,0.817,9.23-2.094,10.439-7.736l12.229-5.666c20.746-3.152,40.017,4.557,59.85,8.13
	c2.463,0.582,4.926,1.163,7.389,1.745c7.953,10.705,15.716,22.628,28.184,4.398c1.511-1.535,3.022-3.071,4.533-4.607
	c5.541-0.935,10.803-2.025,5.221-9.242c0.958-57.119,7.085-114.255-0.534-171.347c5.688-15.104-7.555-19.467-15.686-20.328
	c-31.89-3.379-64.072-5.473-95.966,1.129c-5.285,1.094-10.226,2.845-11.551,9.08c-2.583,0.441-5.166,0.881-7.749,1.321
	C70.724,183.121,64.169,188.65,65.113,201.06"/>
<path fill="#3E3E3E" d="M396.505,251.516c18.742,0,37.485,0.042,56.228-0.013c16.437-0.048,25.922,9.141,26.556,24.412
	c0.62,14.924-9.382,23.725-24.215,23.99c-40.454,0.724-80.94,1.379-121.374,0.419c-13.682-0.325-25.565-10.104-25.032-24.271
	c0.549-14.572,12.019-24.069,27.12-24.781c20.198-0.951,40.475-0.235,60.718-0.235V251.516z"/>
<path fill="#3E3E3E" d="M380.91,198.76c-14.236,0-28.478,0.26-42.706-0.072c-14.67-0.343-27.614-5.05-29.504-21.545
	c-1.962-17.123,12.541-25.645,24.792-26.559c32.673-2.437,65.712-2.202,98.452-0.334c12.385,0.707,25.072,9.613,24.413,24.853
	c-0.646,14.921-12.24,22.253-26.036,23.243c-16.393,1.178-32.935,0.278-49.412,0.278C380.909,198.669,380.91,198.715,380.91,198.76"
	/>
<path fill="#E8451F" d="M58.789,389.107c-8.613-8.393-5.175-18.838-5.259-28.172c-0.403-44.448-0.234-88.903-0.189-133.355
	c0.048-48.565,20.411-68.387,70.187-68.414c22.721-0.012,45.469,0.75,68.152-0.167c19.831-0.802,28.822,6.222,28.558,27.235
	c-0.774,61.234-0.691,122.492-0.002,183.73c0.259,23.153-14.113,27.596-28.017,17.767c-42.991-30.388-83.577-28.527-125.058,1.203
	C65.287,390.28,61.611,389.107,58.789,389.107"/>
</svg>
