<?xml version="1.0" encoding="utf-8"?>
<!-- Generator: Adobe Illustrator 16.0.0, SVG Export Plug-In . SVG Version: 6.00 Build 0)  -->
<!DOCTYPE svg PUBLIC "-//W3C//DTD SVG 1.1//EN" "http://www.w3.org/Graphics/SVG/1.1/DTD/svg11.dtd">
<svg version="1.1" id="图层_1" xmlns="http://www.w3.org/2000/svg" xmlns:xlink="http://www.w3.org/1999/xlink" x="0px" y="0px"
	 width="512px" height="512px" viewBox="0 0 512 512" enable-background="new 0 0 512 512" xml:space="preserve">
<g>
	<path fill="#FFFFFF" d="M254.229,488.949c65.677,0,131.354,0.232,197.029-0.093c35.971-0.179,57.736-22.507,57.748-57.854
		c0.025-75.484-0.227-150.973,0.434-226.452c0.154-17.557-1.963-36.292-15.227-45.627c-32.271-22.712-37.91-58.589-50.543-90.862
		c-16.429-41.967-38.447-53.843-80.865-38.951c-23.032,8.087-44.858,21.53-67.63,27.585
		c-48.217,12.822-93.731,32.464-140.761,48.079c-31.343,10.406-61.398,25.57-93.328,33.106c-41.2,9.725-57.311,24.906-57.436,66.928
		C3.429,279.544,3.356,354.282,3.613,429.02c0.135,39.076,21.108,59.722,60.373,59.846
		C127.398,489.066,190.813,488.919,254.229,488.949"/>
	<path fill="#393B3C" d="M254.229,488.935c-63.416-0.016-126.83,0.132-190.244-0.069c-39.264-0.123-60.238-20.77-60.372-59.846
		c-0.257-74.737-0.185-149.476,0.037-224.211c0.126-42.022,16.236-57.203,57.436-66.928c31.93-7.536,61.986-22.701,93.33-33.106
		c47.029-15.613,92.543-35.257,140.76-48.079c22.771-6.055,44.598-19.498,67.63-27.585c42.418-14.893,64.436-3.017,80.865,38.951
		c12.633,32.273,18.272,68.15,50.543,90.862c13.264,9.335,15.381,28.071,15.227,45.627c-0.66,75.479-0.408,150.969-0.434,226.452
		c-0.012,35.348-21.777,57.676-57.748,57.854C385.583,489.182,319.905,488.949,254.229,488.935"/>
	<path fill="#393B3C" d="M255.589,441.401v-0.125c58.178,0,116.356,0.166,174.534-0.074c27.003-0.109,29.741-3.26,29.729-30.158
		c-0.027-63.464-0.076-126.928-0.056-190.393c0.01-29.823-3.208-33.632-34.146-33.709c-114.839-0.291-229.679-0.27-344.518-0.16
		c-24.169,0.023-30.316,6.764-30.324,31.437c-0.018,63.466,0.061,126.932-0.004,190.397c-0.03,28.834,3.364,32.633,32.518,32.729
		C140.742,441.534,198.166,441.401,255.589,441.401"/>
	<path fill="#393B3C" d="M321.148,141.25v-0.454c18.045,0,36.118,0.634,54.121-0.23c11.297-0.543,25.924,6.356,32.863-7.373
		c7.004-13.86,0.747-28.463-5.749-40.976c-9.403-18.109-25.768-18.712-42.866-12.18c-36.399,13.909-72.937,27.398-110.519,37.792
		c-7.44,2.057-16.1,2.851-15.029,12.964c1.021,9.643,9.423,10.424,17.26,10.438C274.537,141.28,297.842,141.25,321.148,141.25"/>
	<path fill="#FFFFFF" d="M255.589,441.401c-57.423,0-114.847,0.133-172.27-0.057c-29.153-0.096-32.546-3.896-32.518-32.729
		c0.067-63.466-0.012-126.932,0.005-190.397c0.008-24.673,6.155-31.414,30.323-31.437c114.84-0.11,229.68-0.131,344.519,0.16
		c30.938,0.078,34.156,3.886,34.146,33.709c-0.021,63.465,0.028,126.929,0.056,190.393c0.013,26.898-2.726,30.049-29.729,30.158
		c-58.178,0.24-116.355,0.074-174.534,0.074V441.401z M406.284,314.573c-0.508-17.433-18.139-33.338-36.411-32.85
		c-22.063,0.591-35.429,14.396-34.57,35.702c0.733,18.196,17.877,35.183,34.677,34.357
		C386.854,350.955,406.751,330.562,406.284,314.573"/>
	<path fill="#C7401E" d="M321.148,141.25c-23.307,0-46.611,0.03-69.919-0.018c-7.836-0.014-16.239-0.796-17.26-10.438
		c-1.071-10.113,7.589-10.907,15.029-12.964c37.582-10.394,74.119-23.883,110.519-37.792c17.099-6.533,33.463-5.929,42.866,12.18
		c6.496,12.513,12.753,27.116,5.749,40.976c-6.939,13.729-21.566,6.83-32.863,7.373c-18.003,0.864-36.076,0.23-54.121,0.23V141.25z"
		/>
	<path fill="#393B3C" d="M406.284,314.573c0.467,15.988-19.431,36.382-36.305,37.21c-16.8,0.825-33.943-16.161-34.677-34.357
		c-0.858-21.307,12.508-35.111,34.57-35.702C388.146,281.235,405.776,297.141,406.284,314.573"/>
</g>
<rect x="-74.125" y="-18.504" fill="none" width="680.616" height="578.326"/>
<rect fill="none" width="512" height="512"/>
</svg>
